<svg xmlns="http://www.w3.org/2000/svg" width="1200" height="680" viewBox="0 0 1200 680" role="img">
<title>Cash generation supports rising distributions</title>
<desc>Dividend per share, FY2014–FY2026 · recent free cash flow at right</desc>
<rect width="1200" height="680" rx="24" fill="#f7fafc"/>
<text x="72" y="72" fill="#152536" font-family="Arial,sans-serif" font-size="34" font-weight="700">Cash generation supports rising distributions</text>
<text x="72" y="108" fill="#637282" font-family="Arial,sans-serif" font-size="18">Dividend per share, FY2014–FY2026 · recent free cash flow at right</text>
<line x1="92" y1="535.0" x2="792" y2="535.0" stroke="#dbe3ea"/>
<text x="78" y="540.0" text-anchor="end" fill="#637282" font-family="Arial,sans-serif" font-size="14">₹0</text>
<line x1="92" y1="463.0" x2="792" y2="463.0" stroke="#dbe3ea"/>
<text x="78" y="468.0" text-anchor="end" fill="#637282" font-family="Arial,sans-serif" font-size="14">₹10</text>
<line x1="92" y1="391.0" x2="792" y2="391.0" stroke="#dbe3ea"/>
<text x="78" y="396.0" text-anchor="end" fill="#637282" font-family="Arial,sans-serif" font-size="14">₹20</text>
<line x1="92" y1="319.0" x2="792" y2="319.0" stroke="#dbe3ea"/>
<text x="78" y="324.0" text-anchor="end" fill="#637282" font-family="Arial,sans-serif" font-size="14">₹30</text>
<line x1="92" y1="247.0" x2="792" y2="247.0" stroke="#dbe3ea"/>
<text x="78" y="252.0" text-anchor="end" fill="#637282" font-family="Arial,sans-serif" font-size="14">₹40</text>
<line x1="92" y1="175.0" x2="792" y2="175.0" stroke="#dbe3ea"/>
<text x="78" y="180.0" text-anchor="end" fill="#637282" font-family="Arial,sans-serif" font-size="14">₹50</text>
<path d="M 92.0 478.3 L 150.3 454.9 L 208.7 447.7 L 267.0 442.3 L 325.3 378.4 L 383.7 380.2 L 442.0 409.0 L 500.3 340.6 L 558.7 311.8 L 617.0 290.2 L 675.3 203.8 L 733.7 225.4 L 792.0 189.4" fill="none" stroke="#1769aa" stroke-width="5" stroke-linejoin="round"/>
<circle cx="92.0" cy="478.3" r="5" fill="#1769aa"/>
<text x="110.0" y="465.3" text-anchor="middle" fill="#152536" font-family="Arial,sans-serif" font-size="14" font-weight="700">₹7.88</text>
<text x="92.0" y="560" text-anchor="middle" fill="#637282" font-family="Arial,sans-serif" font-size="14">FY14</text>
<circle cx="325.3" cy="378.4" r="5" fill="#1769aa"/>
<text x="325.3" y="365.4" text-anchor="middle" fill="#152536" font-family="Arial,sans-serif" font-size="14" font-weight="700">₹21.75</text>
<text x="325.3" y="560" text-anchor="middle" fill="#637282" font-family="Arial,sans-serif" font-size="14">FY18</text>
<circle cx="558.7" cy="311.8" r="5" fill="#1769aa"/>
<text x="558.7" y="298.8" text-anchor="middle" fill="#152536" font-family="Arial,sans-serif" font-size="14" font-weight="700">₹31.00</text>
<text x="558.7" y="560" text-anchor="middle" fill="#637282" font-family="Arial,sans-serif" font-size="14">FY22</text>
<circle cx="675.3" cy="203.8" r="5" fill="#1769aa"/>
<text x="675.3" y="190.8" text-anchor="middle" fill="#152536" font-family="Arial,sans-serif" font-size="14" font-weight="700">₹46.00</text>
<text x="675.3" y="560" text-anchor="middle" fill="#637282" font-family="Arial,sans-serif" font-size="14">FY24</text>
<circle cx="792.0" cy="189.4" r="5" fill="#1769aa"/>
<text x="792.0" y="176.4" text-anchor="middle" fill="#152536" font-family="Arial,sans-serif" font-size="14" font-weight="700">₹48.00</text>
<text x="792.0" y="560" text-anchor="middle" fill="#637282" font-family="Arial,sans-serif" font-size="14">FY26</text>
<text x="850" y="174" fill="#152536" font-family="Arial,sans-serif" font-size="18" font-weight="700">Free cash flow</text>
<rect x="840" y="205" width="290" height="88" rx="14" fill="#ffffff" stroke="#dbe3ea"/>
<text x="862" y="232" fill="#637282" font-family="Arial,sans-serif" font-size="14">FY2024</text>
<text x="862" y="263" fill="#152536" font-family="Arial,sans-serif" font-size="22" font-weight="700">₹23,865 cr</text>
<text x="1108" y="263" text-anchor="end" fill="#008b8b" font-family="Arial,sans-serif" font-size="15" font-weight="700">90.9% of PAT</text>
<rect x="840" y="317" width="290" height="88" rx="14" fill="#ffffff" stroke="#dbe3ea"/>
<text x="862" y="344" fill="#637282" font-family="Arial,sans-serif" font-size="14">FY2025</text>
<text x="862" y="375" fill="#152536" font-family="Arial,sans-serif" font-size="22" font-weight="700">₹34,549 cr</text>
<text x="1108" y="375" text-anchor="end" fill="#008b8b" font-family="Arial,sans-serif" font-size="15" font-weight="700">129.2% of PAT</text>
<rect x="840" y="429" width="290" height="88" rx="14" fill="#ffffff" stroke="#dbe3ea"/>
<text x="862" y="456" fill="#637282" font-family="Arial,sans-serif" font-size="14">FY2026</text>
<text x="862" y="487" fill="#152536" font-family="Arial,sans-serif" font-size="22" font-weight="700">₹33,097 cr</text>
<text x="1108" y="487" text-anchor="end" fill="#008b8b" font-family="Arial,sans-serif" font-size="15" font-weight="700">112.3% of PAT</text>
<text x="72" y="635" fill="#637282" font-family="Arial,sans-serif" font-size="14">Issuer-adjusted dividend history; special dividends included where reported. FCF uses the issuer definition.</text>
</svg>
